# This file uses centimeters as units for non-parametric coordinates.

mtllib gate_post.mtl
g default
v -357.142853 0.000000 0.000000
v -331.017181 0.000000 0.000000
v -357.142853 383.154541 0.000000
v -331.017181 383.154541 0.000000
v -357.142853 383.154541 -26.125681
v -331.017181 383.154541 -26.125681
v -357.142853 0.000000 -26.125681
v -331.017181 0.000000 -26.125681
vt 0.178209 0.023609
vt 0.254796 0.023610
vt 0.101623 0.989969
vt 0.254796 0.922640
vt 0.101623 0.922641
vt 0.331383 0.922640
vt 0.101623 0.023610
vt 0.331383 0.023610
vt 0.025036 0.989968
vt 0.025036 0.922640
vt 0.178209 0.922640
vt 0.025036 0.023610
vn 0.000000 0.000000 1.000000
vn 0.000000 0.000000 1.000000
vn 0.000000 0.000000 1.000000
vn 0.000000 0.000000 1.000000
vn 0.000000 1.000000 0.000000
vn 0.000000 1.000000 0.000000
vn 0.000000 1.000000 0.000000
vn 0.000000 1.000000 0.000000
vn 0.000000 0.000000 -1.000000
vn 0.000000 0.000000 -1.000000
vn 0.000000 0.000000 -1.000000
vn 0.000000 0.000000 -1.000000
vn 1.000000 0.000000 0.000000
vn 1.000000 0.000000 0.000000
vn 1.000000 0.000000 0.000000
vn 1.000000 0.000000 0.000000
vn -1.000000 0.000000 0.000000
vn -1.000000 0.000000 0.000000
vn -1.000000 0.000000 0.000000
vn -1.000000 0.000000 0.000000
s off
g pCube1
usemtl initialShadingGroup
f 1/1/1 2/2/2 4/4/3 3/11/4
f 3/3/5 4/9/6 6/10/7 5/5/8
f 5/5/9 6/10/10 8/12/11 7/7/12
f 2/2/13 8/8/14 6/6/15 4/4/16
f 7/7/17 1/1/18 3/11/19 5/5/20
